HIERARCHY
ROOT Hips
{
	OFFSET 0.000000 0.000000 0.000000
	CHANNELS 6 Xposition Yposition Zposition Zrotation Yrotation Xrotation 
	JOINT LeftUpLeg_virtual
	{
		OFFSET 0.000000 0.000000 0.000000
		CHANNELS 3 Zrotation Yrotation Xrotation
		JOINT LeftUpLeg
		{
			OFFSET 8.479694 -4.795517 -0.379053
			CHANNELS 3 Zrotation Yrotation Xrotation
			JOINT LeftLeg
			{
				OFFSET 0.485052 -32.551468 0.112863
				CHANNELS 3 Zrotation Yrotation Xrotation
				JOINT LeftFoot
				{
					OFFSET 0.438033 -32.635670 -3.012641
					CHANNELS 3 Zrotation Yrotation Xrotation
					JOINT LeftToeBase
					{
						OFFSET 0.970169 -13.225353 11.864223
						CHANNELS 3 Zrotation Yrotation Xrotation
						End Site
						{
							OFFSET 0.000000 0.000000 0.000000
						}
					}
				}
			}
		}
	}
	JOINT RightUpLeg_virtual
	{
		OFFSET 0.000000 0.000000 0.000000
		CHANNELS 3 Zrotation Yrotation Xrotation
		JOINT RightUpLeg
		{
			OFFSET -8.479694 -4.795517 -0.379053
			CHANNELS 3 Zrotation Yrotation Xrotation
			JOINT RightLeg
			{
				OFFSET -0.484100 -32.551483 0.112903
				CHANNELS 3 Zrotation Yrotation Xrotation
				JOINT RightFoot
				{
					OFFSET -0.438985 -32.635651 -3.012681
					CHANNELS 3 Zrotation Yrotation Xrotation
					JOINT RightToeBase
					{
						OFFSET -0.970169 -13.225354 11.864223
						CHANNELS 3 Zrotation Yrotation Xrotation
						End Site
						{
							OFFSET 0.000000 0.000000 0.000000
						}
					}
				}
			}
		}
	}
	JOINT Spine_virtual
	{
		OFFSET 0.000000 0.000000 0.000000
		CHANNELS 3 Zrotation Yrotation Xrotation
		JOINT Spine
		{
			OFFSET 0.000000 7.722015 1.166203
			CHANNELS 3 Zrotation Yrotation Xrotation
			JOINT Spine1
			{
				OFFSET 0.000000 12.024086 0.248766
				CHANNELS 3 Zrotation Yrotation Xrotation
				JOINT Spine2
				{
					OFFSET -0.000000 11.503036 -0.491240
					CHANNELS 3 Zrotation Yrotation Xrotation
					JOINT Neck_virtual
					{
						OFFSET 0.000000 0.000000 0.000000
						CHANNELS 3 Zrotation Yrotation Xrotation
						JOINT Neck
						{
							OFFSET 0.000000 18.430687 -3.123054
							CHANNELS 3 Zrotation Yrotation Xrotation
							JOINT Head
							{
								OFFSET -0.000000 9.051071 1.034021
								CHANNELS 3 Zrotation Yrotation Xrotation
								End Site
								{
									OFFSET 0.000000 0.000000 0.000000
								}
							}
						}
					}
					JOINT LeftShoulder_virtual
					{
						OFFSET 0.000000 0.000000 0.000000
						CHANNELS 3 Zrotation Yrotation Xrotation
						JOINT LeftShoulder
						{
							OFFSET 6.197824 13.665230 -4.064723
							CHANNELS 3 Zrotation Yrotation Xrotation
							JOINT LeftArm
							{
								OFFSET 7.778132 -0.187073 -1.709282
								CHANNELS 3 Zrotation Yrotation Xrotation
								JOINT LeftForeArm
								{
									OFFSET 21.954697 0.000000 -2.041093
									CHANNELS 3 Zrotation Yrotation Xrotation
									JOINT LeftHand
									{
										OFFSET 22.992908 0.000000 -0.870901
										CHANNELS 3 Zrotation Yrotation Xrotation
										End Site
										{
											OFFSET 0.000000 0.000000 0.000000
										}
									}
								}
							}
						}
					}
					JOINT RightShoulder_virtual
					{
						OFFSET 0.000000 0.000000 0.000000
						CHANNELS 3 Zrotation Yrotation Xrotation
						JOINT RightShoulder
						{
							OFFSET -6.197824 13.665230 -4.064723
							CHANNELS 3 Zrotation Yrotation Xrotation
							JOINT RightArm
							{
								OFFSET -7.778132 -0.187073 -1.709282
								CHANNELS 3 Zrotation Yrotation Xrotation
								JOINT RightForeArm
								{
									OFFSET -21.954697 0.000000 -2.041093
									CHANNELS 3 Zrotation Yrotation Xrotation
									JOINT RightHand
									{
										OFFSET -22.992908 0.000000 -0.870901
										CHANNELS 3 Zrotation Yrotation Xrotation
										End Site
										{
											OFFSET 0.000000 0.000000 0.000000
										}
									}
								}
							}
						}
					}
				}
			}
		}
	}
}
MOTION
Frames: 10
Frame Time: 0.033333
6.347661 81.838989 17.735455 -179.813008 0.881276 -179.875996 -5.084309 -0.359171 10.482201 3.992783 -3.976139 -22.029880 8.412292 6.473308 29.573824 -0.549304 -3.708385 -9.663309 0.000000 0.000000 0.000000 -1.557806 -2.078335 10.891266 -1.598675 -1.901801 -17.518860 1.388365 5.385772 24.203773 9.248562 10.512149 -14.549517 0.000000 0.000000 0.000000 2.967613 2.702528 -3.270583 -5.209280 1.868278 1.035445 -0.309176 -1.991320 3.925294 0.005654 0.070909 0.019316 -0.984926 -0.430872 5.669834 1.800916 -5.154647 -14.116240 0.000000 0.000000 0.000000 0.534755 0.377527 2.944028 11.626223 5.573609 -4.000219 -10.044099 -1.621913 -45.242251 -0.430974 -28.572177 -7.733271 0.000000 0.000000 0.000000 -3.503192 1.620698 2.492539 3.063391 -19.236265 -4.598914 10.942341 -7.373747 -47.325001 1.043564 29.934001 -4.907269 0.000000 0.000000 0.000000 
6.359842 81.849731 17.681999 -179.948232 0.968415 -179.794389 -5.127562 -0.422413 10.573488 3.954933 -4.043819 -21.854816 8.625761 6.443832 29.883102 -0.399800 -3.512047 -9.568630 0.000000 0.000000 0.000000 -1.347614 -2.077387 10.799292 -1.439864 -1.378203 -17.624521 1.711123 5.649826 23.791224 9.437270 10.816474 -14.648135 0.000000 0.000000 0.000000 2.872209 2.712870 -3.346707 -5.275662 1.871045 0.978130 -0.336219 -1.993490 3.891450 0.021319 0.072799 -0.023884 -1.015013 -0.462000 5.676491 1.819573 -5.333947 -14.140364 0.000000 0.000000 0.000000 0.533584 0.335536 2.958262 11.616968 5.580711 -4.126460 -10.044264 -1.595434 -45.235728 -0.358527 -28.629448 -7.822805 0.000000 0.000000 0.000000 -3.540879 1.646342 2.476286 3.093360 -19.217675 -4.552051 10.882295 -7.490777 -47.473339 1.151478 29.935862 -4.834945 0.000000 0.000000 0.000000 
6.369559 81.858017 17.609259 -179.936252 1.170988 -179.701826 -5.128657 -0.411833 10.527475 3.987636 -4.026398 -21.847965 8.606849 6.579269 29.915836 -0.400109 -3.485628 -9.595475 0.000000 0.000000 0.000000 -1.347303 -1.962500 10.730452 -1.448312 -1.282153 -17.625587 1.711007 5.656585 23.818835 9.435635 10.813336 -14.663031 0.000000 0.000000 0.000000 2.862626 2.793020 -3.386494 -5.269752 1.936801 0.904757 -0.310798 -1.950244 3.863631 0.064309 0.119643 0.060701 -1.138225 -0.603831 5.696047 1.719275 -5.190478 -14.072015 0.000000 0.000000 0.000000 0.480682 0.413210 2.971215 11.610330 5.646859 -4.272097 -10.066972 -1.643112 -45.265668 -0.441215 -28.619652 -7.727719 0.000000 0.000000 0.000000 -3.532951 1.496716 2.549950 3.110710 -19.150652 -4.485260 10.820328 -7.332737 -47.561606 1.017363 29.939581 -5.010738 0.000000 0.000000 0.000000 
6.376681 81.863701 17.530334 -179.920720 1.247431 -179.754050 -5.118466 -0.342033 10.581264 3.984960 -3.950666 -21.776928 8.615099 6.533548 29.899621 -0.409971 -3.471194 -9.573451 0.000000 0.000000 0.000000 -1.359686 -2.016361 10.793219 -1.445429 -1.179806 -17.550758 1.718447 5.697549 23.779881 9.426395 10.798859 -14.701919 0.000000 0.000000 0.000000 2.857675 2.802438 -3.403461 -5.256850 1.949286 0.908526 -0.308358 -1.955494 3.889670 0.045546 0.125664 0.004402 -1.034707 -0.503449 5.677123 1.796324 -5.301809 -14.066092 0.000000 0.000000 0.000000 0.546522 0.334356 2.933297 11.633038 5.654590 -4.109901 -10.111410 -1.483442 -45.233071 -0.466476 -28.735128 -7.717555 0.000000 0.000000 0.000000 -3.539168 1.627243 2.493788 3.183162 -19.179564 -4.476426 10.777017 -7.363399 -47.552518 1.043782 29.956834 -4.981743 0.000000 0.000000 0.000000 
6.379488 81.863876 17.460773 -179.893085 1.241856 -179.648086 -5.110925 -0.396979 10.547047 4.027048 -3.934342 -21.831224 8.616716 6.574193 29.956083 -0.424567 -3.456077 -9.621529 0.000000 0.000000 0.000000 -1.353597 -1.953509 10.727300 -1.424110 -1.197085 -17.545573 1.722004 5.680305 23.788801 9.418166 10.781928 -14.734950 0.000000 0.000000 0.000000 2.842357 2.829420 -3.512114 -5.258260 1.992700 0.864114 -0.288690 -2.079587 3.906826 0.081595 0.020159 0.026885 -1.049717 -0.536243 5.662118 1.806368 -5.400739 -14.024307 0.000000 0.000000 0.000000 0.488375 0.436273 2.903408 11.585644 5.859683 -4.057660 -10.099755 -1.503566 -45.273694 -0.389022 -28.745114 -7.737240 0.000000 0.000000 0.000000 -3.560981 1.607579 2.518661 3.169082 -19.141101 -4.608292 10.770916 -7.280680 -47.641601 1.154834 29.944232 -4.853818 0.000000 0.000000 0.000000 
6.378642 81.861282 17.389557 -179.914805 1.163999 -179.755949 -5.137495 -0.328931 10.651127 4.024444 -3.914456 -21.753085 8.584268 6.549522 29.952019 -0.491251 -3.496719 -9.611784 0.000000 0.000000 0.000000 -1.384705 -2.049983 10.833271 -1.421105 -1.175293 -17.452614 1.728985 5.697755 23.749712 9.407560 10.765900 -14.776394 0.000000 0.000000 0.000000 2.828215 2.746738 -3.431571 -5.272923 1.926058 0.854398 -0.294402 -1.994886 3.870927 0.069134 0.098318 0.010873 -1.093272 -0.624848 5.657277 1.746311 -5.097652 -14.012156 0.000000 0.000000 0.000000 0.513247 0.297602 2.916847 11.572659 5.814217 -4.092145 -10.200019 -1.296795 -45.268694 -0.452055 -28.770936 -7.682686 0.000000 0.000000 0.000000 -3.524680 1.569606 2.487678 3.199590 -19.148292 -4.482467 10.769325 -7.264301 -47.553935 1.043764 29.974012 -5.039064 0.000000 0.000000 0.000000 
6.378171 81.856026 17.328609 -179.887976 1.399002 -179.770798 -5.133776 -0.283175 10.675528 4.059491 -3.831805 -21.739536 8.590021 6.641012 30.016643 -0.485983 -3.469196 -9.674506 0.000000 0.000000 0.000000 -1.395166 -2.011297 10.827294 -1.437980 -1.022536 -17.425793 1.734817 5.726090 23.766144 9.418579 10.778916 -14.795370 0.000000 0.000000 0.000000 2.788145 2.809078 -3.435095 -5.274397 1.990440 0.820311 -0.275574 -1.974882 3.878805 0.071534 0.135054 -0.004065 -0.998367 -0.539119 5.633538 1.817456 -4.981896 -13.967271 0.000000 0.000000 0.000000 0.553094 0.303291 2.919638 11.547434 5.948182 -3.987926 -10.212758 -1.289901 -45.239563 -0.404763 -28.755042 -7.777644 0.000000 0.000000 0.000000 -3.538437 1.555195 2.452383 3.291468 -19.091390 -4.512716 10.765246 -7.239690 -47.517418 0.996850 29.995821 -5.117498 0.000000 0.000000 0.000000 
6.376030 81.849594 17.280306 -179.867786 1.403918 -179.722617 -5.136937 -0.299510 10.657603 4.101272 -3.781632 -21.749382 8.575000 6.671990 30.077745 -0.502321 -3.478213 -9.731603 0.000000 0.000000 0.000000 -1.399886 -2.003161 10.805311 -1.426941 -1.013893 -17.406307 1.734857 5.717600 23.778614 9.423301 10.785465 -14.805632 0.000000 0.000000 0.000000 2.749343 2.831281 -3.426985 -5.273376 2.006098 0.782475 -0.252958 -1.970683 3.876813 0.079768 0.149478 0.008616 -0.969620 -0.567491 5.634978 1.879557 -5.029842 -13.915298 0.000000 0.000000 0.000000 0.578783 0.116529 2.879909 11.530542 6.083205 -4.120826 -10.173957 -1.198050 -45.257653 -0.501176 -28.728851 -7.669532 0.000000 0.000000 0.000000 -3.547463 1.489418 2.439328 3.442679 -19.042438 -4.530384 10.754925 -7.197687 -47.653485 1.049013 30.091136 -5.095645 0.000000 0.000000 0.000000 
6.367260 81.846565 17.246550 -179.876119 1.359776 -179.662198 -5.166180 -0.368576 10.607372 4.139257 -3.745123 -21.779219 8.543728 6.746939 30.165401 -0.529841 -3.514937 -9.800678 0.000000 0.000000 0.000000 -1.405612 -1.970270 10.740793 -1.414681 -1.062943 -17.392684 1.730732 5.706121 23.826609 9.418406 10.785410 -14.807833 0.000000 0.000000 0.000000 2.709481 2.726094 -3.433633 -5.291372 1.918356 0.710602 -0.244032 -1.996294 3.853161 0.081163 0.154557 -0.015097 -1.066033 -0.624246 5.609955 1.869485 -5.057985 -13.884553 0.000000 0.000000 0.000000 0.548323 0.294143 2.897907 11.460865 6.078718 -3.991015 -10.077492 -1.201293 -45.304590 -0.329562 -28.626732 -7.802438 0.000000 0.000000 0.000000 -3.531063 1.510401 2.468980 3.417432 -18.918448 -4.523084 10.814809 -7.218781 -47.773137 0.932591 30.143988 -5.290492 0.000000 0.000000 0.000000 
6.358195 81.845367 17.228283 -179.918234 1.087948 -179.756345 -5.223465 -0.395334 10.648308 4.137617 -3.734247 -21.723432 8.510147 6.676622 30.155412 -0.602278 -3.618778 -9.803687 0.000000 0.000000 0.000000 -1.442150 -2.170227 10.835009 -1.404014 -1.115327 -17.312600 1.726345 5.710602 23.747869 9.396791 10.780280 -14.825658 0.000000 0.000000 0.000000 2.644067 2.614011 -3.316162 -5.320590 1.851240 0.716239 -0.279987 -2.066400 3.869116 0.012388 0.056150 -0.010226 -0.933700 -0.541740 5.531876 1.962938 -5.055698 -13.861292 0.000000 0.000000 0.000000 0.650894 0.261189 2.816824 11.473718 6.088096 -4.093955 -9.974416 -1.131860 -45.140508 -0.362788 -28.590079 -7.741920 0.000000 0.000000 0.000000 -3.450854 1.556789 2.336787 3.478748 -18.877692 -4.629535 10.918463 -7.417187 -47.919572 1.019591 30.256290 -5.196736 0.000000 0.000000 0.000000 
